<svg width="41" height="40" viewBox="0 0 41 40" fill="none" xmlns="http://www.w3.org/2000/svg">
<rect opacity="0.1" x="0.999939" width="40" height="40" rx="4" fill="#2F3337"/>
<path fill-rule="evenodd" clip-rule="evenodd" d="M31.3338 19.9854C31.3338 20.7067 31.2603 21.4271 31.1161 22.1293C30.9754 22.8148 30.7671 23.4878 30.4942 24.1312C30.2275 24.7632 29.8968 25.3722 29.5103 25.9401C29.1296 26.5045 28.691 27.0339 28.2092 27.5166C27.7263 27.9971 27.195 28.4345 26.631 28.8169C26.0611 29.2007 25.4513 29.5309 24.8189 29.7988C24.1746 30.0703 23.5001 30.2783 22.8151 30.4188C22.112 30.5634 21.389 30.6372 20.6666 30.6372C19.9437 30.6372 19.2207 30.5634 18.5186 30.4188C17.8326 30.2783 17.1581 30.0703 16.5143 29.7988C15.882 29.5309 15.2715 29.2007 14.7017 28.8169C14.1376 28.4346 13.6064 27.9971 13.1246 27.5166C12.6423 27.0339 12.2037 26.5045 11.8224 25.9401C11.438 25.3722 11.1067 24.7631 10.839 24.1312C10.5661 23.4878 10.3572 22.8148 10.2161 22.1293C10.0734 21.4271 10.0004 20.7067 10.0004 19.9854C10.0004 19.2635 10.0733 18.5416 10.2161 17.8409C10.3573 17.1554 10.5661 16.4814 10.8391 15.839C11.1068 15.2066 11.4381 14.597 11.8225 14.0291C12.2037 13.4642 12.6423 12.9358 13.1246 12.4526C13.6064 11.972 14.1377 11.5357 14.7018 11.1539C15.2716 10.7685 15.8821 10.4382 16.5144 10.1698C17.1582 9.89777 17.8326 9.68924 18.5186 9.54987C19.2208 9.40633 19.9437 9.3335 20.6667 9.3335C21.3891 9.3335 22.112 9.40633 22.8152 9.54987C23.5001 9.68928 24.1746 9.89781 24.8189 10.1698C25.4513 10.4382 26.0612 10.7685 26.631 11.1539C27.1951 11.5357 27.7264 11.972 28.2092 12.4526C28.691 12.9358 29.1296 13.4642 29.5103 14.0291C29.8968 14.597 30.2275 15.2066 30.4942 15.839C30.7671 16.4814 30.9754 17.1554 31.1161 17.8409C31.2603 18.5416 31.3338 19.2635 31.3338 19.9854ZM16.7799 11.7577C14.2396 12.9556 12.3437 15.2929 11.7525 18.1098C11.9927 18.1119 15.7887 18.1598 20.1624 16.9994C18.5857 14.2022 16.9013 11.9195 16.7799 11.7577ZM20.9171 18.4001C16.2268 19.8023 11.726 19.7014 11.5645 19.6952C11.5619 19.7929 11.5572 19.8876 11.5572 19.9854C11.5572 22.3222 12.4401 24.4526 13.8912 26.0634C13.8881 26.0587 16.3809 21.6424 21.2968 20.0551C21.4155 20.0156 21.5364 19.9802 21.6562 19.9458C21.4276 19.4289 21.178 18.9108 20.9171 18.4001ZM26.6825 13.1584C25.0788 11.7463 22.973 10.8897 20.6666 10.8897C19.9264 10.8897 19.2082 10.9792 18.5201 11.1446C18.6566 11.3277 20.3676 13.5943 21.9255 16.4507C25.3627 15.1639 26.6601 13.1917 26.6825 13.1584ZM22.2771 21.4531C22.2568 21.4598 22.2365 21.4656 22.2167 21.4729C16.842 23.3439 15.0869 27.1144 15.0679 27.1556C16.6143 28.3565 18.554 29.081 20.6666 29.081C21.9281 29.081 23.1298 28.8246 24.223 28.3602C24.0881 27.5654 23.5589 24.7797 22.2771 21.4531ZM25.757 27.529C27.8024 26.1508 29.255 23.9622 29.6602 21.4271C29.4727 21.3667 26.9242 20.5611 23.9839 21.0318C25.1788 24.3106 25.6642 26.9809 25.757 27.529ZM22.6266 17.8061C22.8381 18.2399 23.0428 18.6814 23.2319 19.1251C23.2991 19.2843 23.3647 19.4403 23.4287 19.5963C26.5581 19.2031 29.641 19.8647 29.7729 19.8917C29.752 17.7353 28.9796 15.7563 27.7014 14.2069C27.6842 14.2313 26.2232 16.3394 22.6266 17.8061Z" fill="#2F3337"/>
</svg>
