<svg width="40" height="40" viewBox="0 0 40 40" fill="none" xmlns="http://www.w3.org/2000/svg">
<rect opacity="0.1" width="40" height="40" rx="4" fill="#2F3337"/>
<path fill-rule="evenodd" clip-rule="evenodd" d="M20.0016 9.33325C17.1047 9.33325 16.7411 9.34592 15.6033 9.3977C14.4678 9.4497 13.6926 9.62948 13.0144 9.89326C12.3128 10.1657 11.7177 10.5302 11.1248 11.1233C10.5315 11.7162 10.167 12.3113 9.89371 13.0126C9.62926 13.6911 9.44926 14.4664 9.39815 15.6015C9.34726 16.7393 9.33392 17.1031 9.33392 20C9.33392 22.8969 9.34681 23.2594 9.39837 24.3972C9.45059 25.5328 9.63037 26.3079 9.89393 26.9861C10.1666 27.6877 10.531 28.2828 11.1242 28.8757C11.7168 29.469 12.312 29.8344 13.0131 30.1068C13.6917 30.3706 14.4671 30.5504 15.6024 30.6024C16.7402 30.6541 17.1036 30.6668 20.0003 30.6668C22.8974 30.6668 23.2599 30.6541 24.3976 30.6024C25.5332 30.5504 26.3092 30.3706 26.9879 30.1068C27.6892 29.8344 28.2835 29.469 28.8761 28.8757C29.4695 28.2828 29.8339 27.6877 30.1073 26.9863C30.3695 26.3079 30.5495 25.5325 30.6028 24.3974C30.6539 23.2596 30.6673 22.8969 30.6673 20C30.6673 17.1031 30.6539 16.7396 30.6028 15.6018C30.5495 14.4662 30.3695 13.6911 30.1073 13.0128C29.8339 12.3113 29.4695 11.7162 28.8761 11.1233C28.2828 10.5299 27.6895 10.1655 26.9872 9.89326C26.3072 9.62948 25.5317 9.4497 24.3961 9.3977C23.2583 9.34592 22.8961 9.33325 19.9983 9.33325H20.0016ZM19.0446 11.2555C19.3286 11.255 19.6455 11.2555 20.0015 11.2555C22.8496 11.2555 23.1871 11.2657 24.3118 11.3168C25.3518 11.3644 25.9163 11.5381 26.2923 11.6841C26.7901 11.8775 27.145 12.1086 27.5181 12.4819C27.8914 12.8553 28.1225 13.2108 28.3163 13.7086C28.4623 14.0842 28.6363 14.6486 28.6836 15.6886C28.7347 16.8131 28.7459 17.1509 28.7459 19.9976C28.7459 22.8443 28.7347 23.182 28.6836 24.3065C28.6361 25.3465 28.4623 25.911 28.3163 26.2865C28.123 26.7843 27.8914 27.1387 27.5181 27.5119C27.1447 27.8852 26.7903 28.1163 26.2923 28.3096C25.9167 28.4563 25.3518 28.6296 24.3118 28.6772C23.1874 28.7283 22.8496 28.7394 20.0015 28.7394C17.1533 28.7394 16.8157 28.7283 15.6913 28.6772C14.6513 28.6292 14.0868 28.4554 13.7106 28.3094C13.2128 28.1161 12.8572 27.885 12.4839 27.5116C12.1106 27.1383 11.8795 26.7836 11.6857 26.2856C11.5397 25.9101 11.3657 25.3456 11.3183 24.3056C11.2672 23.1811 11.257 22.8434 11.257 19.9949C11.257 17.1464 11.2672 16.8104 11.3183 15.686C11.3659 14.6459 11.5397 14.0815 11.6857 13.7055C11.879 13.2077 12.1106 12.8521 12.4839 12.4788C12.8572 12.1055 13.2128 11.8744 13.7106 11.6806C14.0866 11.5339 14.6513 11.3606 15.6913 11.3128C16.6753 11.2684 17.0566 11.255 19.0446 11.2528V11.2555ZM25.6954 13.0266C24.9887 13.0266 24.4154 13.5993 24.4154 14.3062C24.4154 15.0128 24.9887 15.5862 25.6954 15.5862C26.4021 15.5862 26.9754 15.0128 26.9754 14.3062C26.9754 13.5995 26.4021 13.0266 25.6954 13.0266ZM20.0016 14.5222C16.9765 14.5222 14.5238 16.9749 14.5238 20C14.5238 23.0251 16.9765 25.4767 20.0016 25.4767C23.0268 25.4767 25.4786 23.0251 25.4786 20C25.4786 16.9749 23.0268 14.5222 20.0016 14.5222ZM20.0016 16.4444C21.9651 16.4444 23.5572 18.0362 23.5572 20C23.5572 21.9636 21.9651 23.5556 20.0016 23.5556C18.0378 23.5556 16.446 21.9636 16.446 20C16.446 18.0362 18.0378 16.4444 20.0016 16.4444Z" fill="#2F3337"/>
</svg>
