<svg width="41" height="40" viewBox="0 0 41 40" fill="none" xmlns="http://www.w3.org/2000/svg">
<rect opacity="0.1" x="0.00012207" width="40" height="40" rx="4" fill="#2F3337"/>
<path fill-rule="evenodd" clip-rule="evenodd" d="M19.7343 16.2565L19.7763 16.9485L19.0768 16.8638C16.5307 16.539 14.3064 15.4373 12.4178 13.5872L11.4944 12.6692L11.2566 13.3471C10.753 14.8583 11.0748 16.4542 12.124 17.5276C12.6836 18.1208 12.5577 18.2055 11.5924 17.8524C11.2566 17.7394 10.9628 17.6547 10.9349 17.6971C10.8369 17.7959 11.1727 19.0812 11.4385 19.5896C11.8022 20.2958 12.5437 20.9878 13.3551 21.3974L14.0406 21.7222L13.2292 21.7364C12.4457 21.7364 12.4178 21.7505 12.5017 22.0471C12.7815 22.9651 13.8867 23.9396 15.1178 24.3633L15.9851 24.6599L15.2297 25.1118C14.1105 25.7615 12.7955 26.1287 11.4805 26.157C10.8509 26.1711 10.3333 26.2276 10.3333 26.27C10.3333 26.4112 12.04 27.2021 13.0333 27.5128C16.0131 28.4308 19.5525 28.0354 22.2105 26.4677C24.0991 25.3519 25.9877 23.1346 26.869 20.9878C27.3447 19.8438 27.8203 17.7536 27.8203 16.7508C27.8203 16.1011 27.8623 16.0164 28.6457 15.2396C29.1073 14.7877 29.541 14.2933 29.625 14.1521C29.7649 13.8838 29.7509 13.8838 29.0374 14.1239C27.8483 14.5476 27.6804 14.4911 28.268 13.8555C28.7016 13.4036 29.2193 12.5844 29.2193 12.3443C29.2193 12.302 29.0094 12.3726 28.7716 12.4997C28.5198 12.6409 27.9602 12.8528 27.5405 12.9799L26.7851 13.22L26.0996 12.7539C25.7219 12.4997 25.1903 12.2172 24.9105 12.1325C24.197 11.9347 23.1058 11.963 22.4623 12.189C20.7136 12.8245 19.6084 14.4628 19.7343 16.2565Z" fill="#2F3337"/>
</svg>
