<svg width="40" height="40" viewBox="0 0 40 40" fill="none" xmlns="http://www.w3.org/2000/svg">
<rect opacity="0.1" width="40" height="40" rx="4" fill="#2F3337"/>
<path fill-rule="evenodd" clip-rule="evenodd" d="M28.3347 13.1245C29.2527 13.3764 29.9756 14.1186 30.2209 15.0611C30.6667 16.7693 30.6667 20.3334 30.6667 20.3334C30.6667 20.3334 30.6667 23.8974 30.2209 25.6057C29.9756 26.5482 29.2527 27.2904 28.3347 27.5424C26.6712 28.0001 20 28.0001 20 28.0001C20 28.0001 13.3289 28.0001 11.6653 27.5424C10.7473 27.2904 10.0244 26.5482 9.77907 25.6057C9.33337 23.8974 9.33337 20.3334 9.33337 20.3334C9.33337 20.3334 9.33337 16.7693 9.77907 15.0611C10.0244 14.1186 10.7473 13.3764 11.6653 13.1245C13.3289 12.6667 20 12.6667 20 12.6667C20 12.6667 26.6712 12.6667 28.3347 13.1245ZM18.0001 17.3333V24L23.3334 20.6668L18.0001 17.3333Z" fill="#2F3337"/>
</svg>
